<svg version="1.2" xmlns="http://www.w3.org/2000/svg" viewBox="0 0 1527 1557" width="1527" height="1557">
	<title>sustainability-report-2022-en-1-pdf-svg-svg</title>
	<style>
		.s0 { fill: #ffffff } 
	</style>
	<path id="Path 4" fill-rule="evenodd" class="s0" d="m224.2 1296.3v255.8h-51.5v-103h-117.5v103h-51.5v-255.8h51.5v103h117.5v-103zm241.4 0h51.5v144.8c0 74-40.2 115.9-111.1 115.9-69.2 0-109.4-41.9-109.4-114.3v-146.4h51.5v144.8c0 43.4 20.9 66 59.6 66 37 0 57.9-22.6 57.9-64.4zm656.6-0.1h54.7l-88.5 255.9h-43.4l-59.6-167.4-57.9 167.4h-43.5l-88.5-255.9h54.7l58 177 57.9-177h41.9l57.9 177zm148.1 210.8h143.2v46.7h-194.7v-255.9h188.3v46.7h-136.8v51.5h95v46.7h-95zm204.4-210.7h51.5v255.8h-51.5zm-854.6 202.7l-1.6 3.2-20.9 49.9h-53.1l112.6-255.8h45.1l1.6 1.6 111 254.2h-54.7l-22.5-53.1zm20.9-51.5l-1.6 4.9h78.8l-3.2-4.9-37-86.9zm-407.2-1243.9c0 0 244.7 296.1 424.9 687.2 1.6 3.2-1.6 6.4-1.6 6.4-1.6 1.6-4.8 1.6-6.4 1.6-66-33.8-347.7-177-463.5-289.7 0 0-72.5-56.3-77.3-152.8-9.6-127.2 123.9-252.7 123.9-252.7zm373.4 785.3c0 0 4.8 0 6.5 4.8 0 0 1.6 3.3-3.3 6.5-45 32.2-185 130.3-246.2 144.8-88.5 22.5-175.4-48.3-225.3-138.4zm-593.8-395.8c0 0 399.1 212.4 605.1 352.4 0 0 4.8 3.2 1.6 6.4 0 0-1.6 3.2-4.8 3.2-72.5 0-344.4 1.6-350.9 0 0 0-45-1.6-90.1-19.3 0 0-96.6-32.2-148.1-140 0 0-48.2-90.1-12.8-202.7zm638.9-592.2c0 0 136.8 178.6 70.8 852.8h-1.6c0 0 1.6 4.9-3.2 6.5 0 0-3.3 0-6.5-3.2-43.4-62.8-247.8-365.3-288-548.8 0 0-24.2-77.2-1.7-148 0 0 30.6-112.7 154.5-144.8 0 0 54.8-12.9 75.7-14.5zm222.1 0c38.6 4.8 74 14.5 74 14.5 123.9 30.5 154.5 144.8 154.5 144.8 22.5 59.5 0 148 0 148-41.8 183.5-244.6 482.8-289.7 548.8 0 0-1.6 4.8-6.4 1.6 0 0-3.2 0-3.2-4.9-67.6-674.2 70.8-852.8 70.8-852.8zm511.8 1005.7c-104.7 180.2-225.4 138.4-225.4 138.4-65.9-17.7-201.1-112.6-246.2-144.8-3.2-3.2-1.6-6.5-1.6-6.5 0-3.2 4.8-3.2 4.8-3.2zm125.5-415.2c35.4 107.9-9.7 199.6-9.7 199.6-53.1 112.6-151.3 144.8-151.3 144.8-45 16.1-80.4 17.7-80.4 17.7-8.1 1.6-286.5 1.6-360.5 1.6-3.2 0-4.8-3.2-4.8-3.2-1.7-4.8 3.2-8 3.2-8 204.4-138.4 603.5-352.5 603.5-352.5zm-220.5-387.8c0 0 132 120.7 123.9 252.7-3.2 93.3-77.2 152.8-77.2 152.8-115.9 112.7-394.3 254.3-461.9 288.1-3.2 1.6-6.5 0-6.5 0-3.2-3.2-1.6-8.1-1.6-8.1 178.7-389.4 423.3-685.5 423.3-685.5z"/>
</svg>