<svg xmlns="http://www.w3.org/2000/svg" id="Layer_1" data-name="Layer 1" viewBox="0 0 121.92 33.15"><defs><style>.cls-1{fill:#1d458b;}.cls-2{fill:#3173b9;}.cls-3{fill:#fff;}</style></defs><g id="Group_125" data-name="Group 125"><g id="Group_123" data-name="Group 123"><path id="Path_435" data-name="Path 435" class="cls-1" d="M120.26,10.19,105.73.31v4.9a4,4,0,0,0,1.77,3.15l9.91,6.56,1.5,1.26,1.18,1a4.16,4.16,0,0,1,1.54,2.23h0c.06-.21.1-1.51.1-1.51V14.81c0-2.1.15-3.27-1.47-4.62"></path><path id="Path_436" data-name="Path 436" class="cls-2" d="M121.39,20.2a3.53,3.53,0,0,0-1.51-2.77l-.81-.68-.48.4-1.5,1.26-9.83,6.51a4,4,0,0,0-1.53,3V32.8l14.21-9.66a3.6,3.6,0,0,0,1.47-2.8Z"></path></g><g id="Group_124" data-name="Group 124"><path id="Path_437" data-name="Path 437" class="cls-3" d="M.34,22.65H3.2V14.42l7.78,7s.77,1.32,3.92,1.32V10.5H12.08v8.23L3.47,11a3.92,3.92,0,0,0-1.69-.58H.34Z"></path><path id="Path_438" data-name="Path 438" class="cls-3" d="M16.58,22.7h2.87V14.78A1.9,1.9,0,0,1,21,12.93h6.38a1.81,1.81,0,0,1,1.48,1.83V16.6H21.25v2.52h7.59V22.7h2.9V14.12s.22-3-3.45-3.73H19.81a3.89,3.89,0,0,0-3.26,3.92c0,3.45,0,8.39,0,8.39"></path><path id="Path_439" data-name="Path 439" class="cls-3" d="M33.31,22.68h.94a3.53,3.53,0,0,0,2.34-.75A10.44,10.44,0,0,0,38,20.63c.58-.66,9.74-10.16,9.74-10.16H44.24L36.15,18.7V10.39H33.31Z"></path><rect id="Rectangle_89" data-name="Rectangle 89" class="cls-3" x="49.31" y="10.43" width="2.89" height="12.25"></rect><path id="Path_440" data-name="Path 440" class="cls-3" d="M53.79,22.65h2.85V14.42l7.79,7s.77,1.32,3.91,1.32V10.5H65.53v8.23L56.92,11a3.92,3.92,0,0,0-1.69-.58H53.79Z"></path><path id="Path_441" data-name="Path 441" class="cls-3" d="M82.6,12.9V10.45H73.41a3.58,3.58,0,0,0-3.47,3.34v8.93h2.88V19h9.76v-2.4H72.8V14.8s.13-1.9,1.88-1.9Z"></path><path id="Path_442" data-name="Path 442" class="cls-3" d="M96.35,10.42H87.79a3.78,3.78,0,0,0-3.61,3.75v5.08a3.73,3.73,0,0,0,3.31,3.43h9A3.79,3.79,0,0,0,100,19.14v-4.8a3.74,3.74,0,0,0-3.57-3.91h-.1m.78,8.17a1.91,1.91,0,0,1-2,1.65H88.65A2,2,0,0,1,87,18.54V14.72a2.08,2.08,0,0,1,1.49-1.79h7.2a1.86,1.86,0,0,1,1.43,1.74Z"></path><path id="Path_443" data-name="Path 443" class="cls-2" d="M.34,22.65H3.2V14.42l7.78,7s.77,1.32,3.92,1.32V10.5H12.08v8.23L3.47,11a3.92,3.92,0,0,0-1.69-.58H.34Z"></path><path id="Path_444" data-name="Path 444" class="cls-2" d="M16.58,22.7h2.87V14.78A1.9,1.9,0,0,1,21,12.93h6.38a1.81,1.81,0,0,1,1.48,1.83V16.6H21.25v2.52h7.59V22.7h2.9V14.12s.22-3-3.45-3.73H19.81a3.89,3.89,0,0,0-3.26,3.92c0,3.45,0,8.39,0,8.39"></path><path id="Path_445" data-name="Path 445" class="cls-2" d="M33.31,22.68h.94a3.53,3.53,0,0,0,2.34-.75A10.44,10.44,0,0,0,38,20.63c.58-.66,9.74-10.16,9.74-10.16H44.24L36.15,18.7V10.39H33.31Z"></path><rect id="Rectangle_90" data-name="Rectangle 90" class="cls-1" x="49.31" y="10.43" width="2.89" height="12.25"></rect><path id="Path_446" data-name="Path 446" class="cls-1" d="M53.79,22.65h2.85V14.42l7.79,7s.77,1.32,3.91,1.32V10.5H65.53v8.23L56.92,11a3.92,3.92,0,0,0-1.69-.58H53.79Z"></path><path id="Path_447" data-name="Path 447" class="cls-1" d="M82.6,12.9V10.45H73.41a3.58,3.58,0,0,0-3.47,3.34v8.93h2.88V19h9.76v-2.4H72.8V14.8s.13-1.9,1.88-1.9Z"></path><path id="Path_448" data-name="Path 448" class="cls-1" d="M96.35,10.42H87.79a3.78,3.78,0,0,0-3.61,3.75v5.08a3.73,3.73,0,0,0,3.31,3.43h9A3.79,3.79,0,0,0,100,19.14v-4.8a3.74,3.74,0,0,0-3.57-3.91h-.1m.78,8.17a1.91,1.91,0,0,1-2,1.65H88.65A2,2,0,0,1,87,18.54V14.72a2.08,2.08,0,0,1,1.49-1.79h7.2a1.86,1.86,0,0,1,1.43,1.74Z"></path></g></g></svg>