<svg xmlns="http://www.w3.org/2000/svg" viewBox="0 0 20 20" fill="#fff">
  <path d="M16.5,2.924c0.667,0,1.208,0.541,1.208,1.208c0,0.667-0.541,1.208-1.208,1.208S15.292,4.799,15.292,4.132C15.292,3.465,15.833,2.924,16.5,2.924L16.5,2.924z M18,8.5c0-1.105-0.895-2-2-2c-0.539,0-1.028,0.214-1.388,0.559C13.7,6.442,12.301,5.75,10.758,5.681L11.5,2.5l2.5,0.5c0,0.828,0.672,1.5,1.5,1.5s1.5-0.672,1.5-1.5S16.328,1.5,15.5,1.5c-0.599,0-1.115,0.352-1.355,0.858L11.5,1.5c-0.112-0.023-0.227,0.005-0.315,0.076s-0.146,0.174-0.157,0.289L10.25,5.681C8.706,5.75,7.308,6.442,6.388,7.059C6.028,6.714,5.539,6.5,5,6.5c-1.105,0-2,0.895-2,2c0,0.736,0.398,1.376,0.991,1.725C4.004,10.299,4,10.448,4,10.599c0,2.821,3.134,5.101,7,5.101s7-2.28,7-5.101c0-0.151-0.004-0.3-0.009-0.448C18.602,9.876,18,9.236,18,8.5z M5.5,11.5c0-0.552,0.448-1,1-1s1,0.448,1,1s-0.448,1-1,1S5.5,12.052,5.5,11.5z M14.5,14.5c-0.828,0.828-2.5,1.5-3.5,1.5s-2.672-0.672-3.5-1.5c-0.156-0.156-0.156-0.409,0-0.565c0.156-0.156,0.409-0.156,0.565,0C8.562,14.438,9.5,14.5,11,14.5s2.438-0.062,2.935-0.565c0.156-0.156,0.409-0.156,0.565,0C14.656,14.091,14.656,14.344,14.5,14.5z M13.5,12.5c-0.552,0-1-0.448-1-1s0.448-1,1-1s1,0.448,1,1S14.052,12.5,13.5,12.5z"/>
</svg>
