<?xml version="1.0" encoding="UTF-8"?>
<svg id="Laag_1" data-name="Laag 1" xmlns="http://www.w3.org/2000/svg" viewBox="0 0 623.62 257.95">
  <defs>
    <style>
      .cls-1 {
        fill: #ff8300;
      }
    </style>
  </defs>
  <path class="cls-1" d="M580.26,41.92c.79-1.78,1.86-3.33,3.21-4.65,1.35-1.31,2.93-2.34,4.73-3.09,1.8-.75,3.71-1.12,5.73-1.12s3.92.37,5.71,1.12,3.35,1.78,4.69,3.09,2.4,2.86,3.19,4.65c.79,1.79,1.18,3.71,1.18,5.79s-.39,4.09-1.18,5.89c-.79,1.8-1.85,3.36-3.19,4.69-1.34,1.33-2.9,2.36-4.69,3.09-1.79.73-3.69,1.1-5.71,1.1s-3.93-.37-5.73-1.1c-1.8-.73-3.37-1.77-4.73-3.09-1.35-1.33-2.42-2.89-3.21-4.69-.79-1.8-1.18-3.76-1.18-5.89s.39-4,1.18-5.79ZM582.69,52.72c.62,1.54,1.47,2.87,2.56,4,1.09,1.13,2.38,2.01,3.86,2.66,1.48.64,3.09.96,4.82.96s3.29-.32,4.76-.96c1.47-.64,2.75-1.53,3.84-2.66,1.09-1.13,1.94-2.46,2.56-4,.62-1.54.92-3.21.92-5.02s-.31-3.4-.92-4.92c-.62-1.52-1.47-2.84-2.56-3.96-1.09-1.12-2.37-1.99-3.84-2.64-1.47-.64-3.06-.96-4.76-.96s-3.34.32-4.82.96c-1.48.64-2.77,1.52-3.86,2.64-1.09,1.12-1.94,2.44-2.56,3.96-.62,1.52-.92,3.16-.92,4.92s.31,3.48.92,5.02ZM594.83,39.16c2.05,0,3.56.41,4.55,1.22.98.81,1.48,2.05,1.48,3.7,0,1.55-.43,2.68-1.3,3.41-.87.72-1.94,1.15-3.23,1.28l4.92,7.6h-2.87l-4.69-7.4h-2.83v7.4h-2.68v-17.21h6.65ZM593.65,46.8c.6,0,1.17-.02,1.71-.06s1.02-.15,1.44-.33c.42-.18.75-.47,1-.85.25-.38.37-.91.37-1.59,0-.58-.11-1.04-.33-1.38-.22-.34-.51-.6-.87-.79-.35-.18-.76-.31-1.22-.37-.46-.06-.91-.1-1.36-.1h-3.54v5.47h2.79Z"/>
  <g>
    <path class="cls-1" d="M34.2,203.5h18.11v3.38h-7.11v18.98h-3.92v-18.98h-7.08v-3.38Z"/>
    <path class="cls-1" d="M55.28,203.5h3.92v8.9h10.18v-8.9h3.92v22.37h-3.92v-10.09h-10.18v10.09h-3.92v-22.37Z"/>
    <path class="cls-1" d="M78.47,203.5h16.1v3.38h-12.19v5.86h11.28v3.19h-11.28v6.55h12.41v3.38h-16.32v-22.37Z"/>
    <path class="cls-1" d="M107.85,203.5h10.87c2.01,0,3.61.46,4.82,1.38,1.21.92,1.82,2.31,1.82,4.17,0,1.13-.28,2.09-.83,2.9-.55.8-1.34,1.43-2.37,1.86v.06c1.38.29,2.42.95,3.13,1.96.71,1.01,1.07,2.28,1.07,3.81,0,.88-.16,1.7-.47,2.46-.31.76-.8,1.42-1.47,1.97-.67.55-1.52.99-2.57,1.32-1.04.32-2.29.49-3.73.49h-10.28v-22.37ZM111.77,212.87h6.39c.94,0,1.72-.27,2.35-.8.63-.53.94-1.3.94-2.3,0-1.13-.28-1.92-.85-2.38-.56-.46-1.38-.69-2.44-.69h-6.39v6.17ZM111.77,222.67h6.92c1.19,0,2.11-.31,2.77-.92.66-.62.99-1.49.99-2.62s-.33-1.96-.99-2.55c-.66-.59-1.58-.89-2.77-.89h-6.92v6.99Z"/>
    <path class="cls-1" d="M130.38,203.5h3.92v22.37h-3.92v-22.37Z"/>
    <path class="cls-1" d="M139.56,203.5h3.92v18.98h11.37v3.38h-15.29v-22.37Z"/>
    <path class="cls-1" d="M158.01,203.5h3.92v18.98h11.37v3.38h-15.29v-22.37Z"/>
    <path class="cls-1" d="M185.64,203.5h16.1v3.38h-12.19v5.86h11.28v3.19h-11.28v6.55h12.41v3.38h-16.32v-22.37Z"/>
    <path class="cls-1" d="M203.9,203.5h4.67l5.08,7.89,5.29-7.89h4.39l-7.39,10.78,7.93,11.59h-4.76l-5.58-8.55-5.67,8.55h-4.48l7.93-11.59-7.39-10.78Z"/>
    <path class="cls-1" d="M226.62,203.5h9.87c1.59,0,2.88.23,3.88.69,1,.46,1.78,1.03,2.32,1.72.54.69.91,1.44,1.11,2.26.2.81.3,1.57.3,2.26s-.1,1.44-.3,2.24c-.2.8-.57,1.55-1.11,2.24-.54.69-1.32,1.26-2.32,1.71s-2.3.67-3.88.67h-5.95v8.58h-3.92v-22.37ZM230.53,214.09h5.73c.44,0,.89-.06,1.35-.19.46-.12.88-.33,1.27-.61.39-.28.7-.66.94-1.13.24-.47.36-1.06.36-1.77s-.1-1.34-.31-1.82c-.21-.48-.49-.86-.85-1.14-.36-.28-.76-.48-1.22-.58s-.95-.16-1.47-.16h-5.8v7.39Z"/>
    <path class="cls-1" d="M247.51,203.5h16.1v3.38h-12.19v5.86h11.28v3.19h-11.28v6.55h12.41v3.38h-16.32v-22.37Z"/>
    <path class="cls-1" d="M267.25,203.5h10.68c2.46,0,4.31.53,5.54,1.6s1.85,2.55,1.85,4.45c0,1.06-.16,1.95-.47,2.65s-.68,1.26-1.1,1.69c-.42.43-.83.74-1.24.92s-.7.31-.89.38v.06c.33.04.69.15,1.08.31.39.17.75.43,1.08.8.33.37.61.84.83,1.43.22.59.33,1.32.33,2.19,0,1.32.1,2.51.3,3.59.2,1.08.51,1.84.92,2.3h-4.2c-.29-.48-.47-1.01-.52-1.6-.05-.58-.08-1.15-.08-1.69,0-1.02-.06-1.91-.19-2.65s-.36-1.36-.69-1.85-.79-.85-1.36-1.08c-.57-.23-1.31-.34-2.21-.34h-5.76v9.21h-3.92v-22.37ZM271.16,213.68h6.42c1.25,0,2.2-.3,2.85-.89.65-.6.97-1.49.97-2.68,0-.71-.1-1.29-.31-1.74-.21-.45-.5-.8-.86-1.05-.37-.25-.78-.42-1.25-.5-.47-.08-.96-.13-1.46-.13h-6.36v6.99Z"/>
    <path class="cls-1" d="M289.62,203.5h3.92v22.37h-3.92v-22.37Z"/>
    <path class="cls-1" d="M298.48,203.5h16.1v3.38h-12.19v5.86h11.28v3.19h-11.28v6.55h12.41v3.38h-16.32v-22.37Z"/>
    <path class="cls-1" d="M318.53,203.5h4.14l10.21,16.48h.06v-16.48h3.73v22.37h-4.14l-10.18-16.45h-.09v16.45h-3.73v-22.37Z"/>
    <path class="cls-1" d="M356.88,210.61c-.17-.65-.4-1.24-.69-1.79-.29-.54-.67-1.01-1.13-1.41-.46-.4-1-.71-1.61-.92-.62-.22-1.33-.33-2.15-.33-1.19,0-2.22.24-3.09.72-.87.48-1.57,1.12-2.11,1.93-.54.8-.95,1.72-1.21,2.74s-.39,2.07-.39,3.13.13,2.11.39,3.13.66,1.94,1.21,2.74c.54.8,1.25,1.45,2.11,1.93.87.48,1.9.72,3.09.72.88,0,1.65-.15,2.32-.45.67-.3,1.24-.72,1.72-1.25.48-.53.86-1.15,1.13-1.86.27-.71.45-1.47.53-2.29h3.82c-.08,1.34-.37,2.56-.86,3.67-.49,1.11-1.15,2.06-1.99,2.87-.84.8-1.82,1.43-2.94,1.86-1.13.44-2.37.66-3.73.66-1.67,0-3.17-.31-4.5-.92s-2.45-1.46-3.37-2.52c-.92-1.07-1.62-2.31-2.12-3.73-.49-1.42-.74-2.93-.74-4.54s.25-3.09.74-4.51c.49-1.42,1.2-2.66,2.12-3.73.92-1.06,2.04-1.91,3.37-2.54s2.82-.94,4.5-.94c1.25,0,2.43.17,3.54.52,1.11.34,2.08.85,2.93,1.5.85.66,1.53,1.46,2.05,2.4.52.94.85,2.02.97,3.23h-3.92Z"/>
    <path class="cls-1" d="M364.86,203.5h16.1v3.38h-12.19v5.86h11.28v3.19h-11.28v6.55h12.41v3.38h-16.32v-22.37Z"/>
    <path class="cls-1" d="M409.04,210.61c-.17-.65-.4-1.24-.69-1.79-.29-.54-.67-1.01-1.13-1.41-.46-.4-1-.71-1.61-.92-.62-.22-1.33-.33-2.15-.33-1.19,0-2.22.24-3.09.72-.87.48-1.57,1.12-2.11,1.93-.54.8-.95,1.72-1.21,2.74s-.39,2.07-.39,3.13.13,2.11.39,3.13.66,1.94,1.21,2.74c.54.8,1.25,1.45,2.11,1.93.87.48,1.9.72,3.09.72.88,0,1.65-.15,2.32-.45.67-.3,1.24-.72,1.72-1.25.48-.53.86-1.15,1.13-1.86.27-.71.45-1.47.53-2.29h3.82c-.08,1.34-.37,2.56-.86,3.67-.49,1.11-1.15,2.06-1.99,2.87-.84.8-1.82,1.43-2.94,1.86-1.13.44-2.37.66-3.73.66-1.67,0-3.17-.31-4.5-.92s-2.45-1.46-3.37-2.52c-.92-1.07-1.62-2.31-2.12-3.73-.49-1.42-.74-2.93-.74-4.54s.25-3.09.74-4.51c.49-1.42,1.2-2.66,2.12-3.73.92-1.06,2.04-1.91,3.37-2.54s2.82-.94,4.5-.94c1.25,0,2.43.17,3.54.52,1.11.34,2.08.85,2.93,1.5.85.66,1.53,1.46,2.05,2.4.52.94.85,2.02.97,3.23h-3.92Z"/>
    <path class="cls-1" d="M426.55,202.97c1.67,0,3.17.31,4.5.94s2.45,1.47,3.37,2.54c.92,1.06,1.62,2.31,2.11,3.73.49,1.42.74,2.92.74,4.51s-.25,3.12-.74,4.54c-.49,1.42-1.2,2.66-2.11,3.73-.92,1.06-2.04,1.91-3.37,2.52s-2.82.92-4.5.92-3.17-.31-4.5-.92-2.45-1.46-3.37-2.52c-.92-1.07-1.62-2.31-2.12-3.73-.49-1.42-.74-2.93-.74-4.54s.25-3.09.74-4.51c.49-1.42,1.2-2.66,2.12-3.73.92-1.06,2.04-1.91,3.37-2.54s2.82-.94,4.5-.94ZM426.55,206.16c-1.19,0-2.22.24-3.09.72-.87.48-1.57,1.12-2.11,1.93-.54.8-.95,1.72-1.21,2.74s-.39,2.07-.39,3.13.13,2.11.39,3.13.66,1.94,1.21,2.74c.54.8,1.25,1.45,2.11,1.93.87.48,1.9.72,3.09.72s2.22-.24,3.09-.72c.87-.48,1.57-1.12,2.12-1.93.54-.8.94-1.72,1.21-2.74.26-1.02.39-2.07.39-3.13s-.13-2.11-.39-3.13c-.26-1.02-.66-1.94-1.21-2.74-.54-.8-1.25-1.45-2.12-1.93-.87-.48-1.9-.72-3.09-.72Z"/>
    <path class="cls-1" d="M441.24,203.5h5.51l6.17,17.51h.06l6.01-17.51h5.45v22.37h-3.73v-17.26h-.06l-6.2,17.26h-3.23l-6.2-17.26h-.06v17.26h-3.73v-22.37Z"/>
    <path class="cls-1" d="M469.62,203.5h9.87c1.59,0,2.88.23,3.88.69,1,.46,1.78,1.03,2.32,1.72.54.69.91,1.44,1.11,2.26.2.81.3,1.57.3,2.26s-.1,1.44-.3,2.24c-.2.8-.57,1.55-1.11,2.24-.54.69-1.32,1.26-2.32,1.71s-2.3.67-3.88.67h-5.95v8.58h-3.92v-22.37ZM473.54,214.09h5.73c.44,0,.89-.06,1.35-.19.46-.12.88-.33,1.27-.61.39-.28.7-.66.94-1.13.24-.47.36-1.06.36-1.77s-.1-1.34-.31-1.82c-.21-.48-.49-.86-.85-1.14-.35-.28-.76-.48-1.22-.58-.46-.1-.95-.16-1.47-.16h-5.8v7.39Z"/>
    <path class="cls-1" d="M494.78,203.5h4.17l8.62,22.37h-4.2l-2.1-5.92h-8.93l-2.1,5.92h-4.04l8.58-22.37ZM493.4,216.97h6.83l-3.35-9.62h-.09l-3.38,9.62Z"/>
    <path class="cls-1" d="M510.01,203.5h4.14l10.21,16.48h.06v-16.48h3.73v22.37h-4.14l-10.18-16.45h-.09v16.45h-3.73v-22.37Z"/>
    <path class="cls-1" d="M538.92,217.1l-8.4-13.6h4.54l5.92,10.02,5.83-10.02h4.39l-8.36,13.6v8.77h-3.92v-8.77Z"/>
  </g>
  <rect class="cls-1" x="34.07" y="174.1" width="517.13" height=".67"/>
  <path class="cls-1" d="M84.2,148.54c-16.59,0-30.41-6.17-39.97-17.86-8.56-10.47-13.27-24.97-13.27-40.83,0-29.22,16.46-58.7,53.24-58.7,13.93,0,27.26,5.55,35.66,14.85l.47.52-8.49,8.48-.51-.66c-6.25-8.07-16.14-12.69-27.13-12.69-19,0-41.18,12.62-41.18,48.2s22.19,48.19,41.18,48.19c11.32,0,21.1-5.07,27.54-14.28l.5-.71,8.4,8.4-.4.51c-8.52,10.85-20.98,16.58-36.04,16.58"/>
  <polygon class="cls-1" points="256.58 146.2 243.64 146.2 230.07 111.61 189.66 111.61 193.72 101.12 225.93 101.12 205.48 46.87 167.04 146.2 154.07 146.2 199.54 33.49 212.37 33.49 212.55 33.95 256.58 146.2"/>
  <polygon class="cls-1" points="369.51 146.2 304.73 146.2 304.73 33.49 316.8 33.49 316.8 135.7 369.51 135.7 369.51 146.2"/>
  <polygon class="cls-1" points="448.51 146.2 435.18 146.2 393.34 33.49 406.28 33.49 442.07 132.06 477.56 33.49 490.34 33.49 448.51 146.2"/>
  <rect class="cls-1" x="539.14" y="33.49" width="12.06" height="112.71"/>
</svg>